<svg xmlns="http://www.w3.org/2000/svg" viewBox="0 -0.5 48 48" shape-rendering="crispEdges">

<path stroke="#0066cc" d="M36 0h7M33 1h2M37 1h3M43 1h2M31 2h2M35 2h1M45 2h1M29 3h2M33 3h1M46 3h1M20 4h9M32 4h1M46 4h1M17 5h4M32 5h3M47 5h1M14 6h5M35 6h2M47 6h1M12 7h2M15 7h3M37 7h1M47 7h1M14 8h3M38 8h2M47 8h1M13 9h3M40 9h1M46 9h2M12 10h4M41 10h1M46 10h1M12 11h3M42 11h1M11 12h3M43 12h1M11 13h2M43 13h1M11 14h1M27 14h2M44 14h1M22 15h2M29 15h2M44 15h1M21 16h1M30 16h2M44 16h1M20 17h1M31 17h2M45 17h1M19 18h1M32 18h1M45 18h1M19 19h1M32 19h1M45 19h1M19 20h1M32 20h1M45 20h1M19 21h14M46 21h1M46 22h1M14 23h1M46 23h1M13 24h2M46 24h1M12 25h3M46 25h1M11 26h2M14 26h1M46 26h1M10 27h2M14 27h1M9 28h2M14 28h1M19 28h1M9 29h1M12 29h1M14 29h2M19 29h1M4 30h1M13 30h3M19 30h1M7 31h1M12 31h1M14 31h2M20 31h1M44 31h1M15 32h2M20 32h1M34 32h1M44 32h1M6 33h1M15 33h2M21 33h2M32 33h2M43 33h1M16 34h2M22 34h1M29 34h4M43 34h1M14 35h1M16 35h3M24 35h7M42 35h1M15 36h1M17 36h3M42 36h1M16 37h1M19 37h2M41 37h1M19 38h4M40 38h1M21 39h5M38 39h2M24 40h4M36 40h2M23 41h1M27 41h5M34 41h3M32 42h2M5 45h1" />
<path stroke="#3366ff" d="M35 1h2M33 2h2M31 3h2M29 4h3M21 5h9M19 6h9M18 7h8M28 7h1M17 8h4M23 8h2M26 8h1M29 8h1M16 9h3M22 9h2M25 9h1M27 9h1M16 10h1M22 10h1M24 10h1M15 11h1M20 11h2M23 11h1M25 11h1M19 12h2M22 12h3M26 12h1M18 13h2M21 13h5M17 14h2M20 14h3M16 15h2M19 15h2M15 16h2M18 16h2M14 17h1M16 17h3M13 18h6M12 19h7M11 20h8M11 21h8M10 22h16M27 22h1M9 23h5M15 23h10M26 23h1M9 24h4M15 24h11M27 24h1M9 25h3M15 25h12M28 25h1M7 26h4M15 26h13M29 26h1M6 27h4M15 27h4M6 28h3M15 28h4M5 29h4M16 29h3M5 30h3M16 30h3M36 30h9M4 31h3M16 31h4M35 31h1M4 32h3M17 32h3M36 32h1M43 32h1M3 33h3M17 33h4M34 33h3M38 33h1M41 33h2M3 34h3M18 34h4M33 34h10M3 35h3M19 35h5M31 35h11M2 36h4M20 36h22M2 37h4M21 37h20M2 38h4M23 38h17M2 39h3M26 39h12M2 40h3M28 40h8M2 41h3M32 41h2M3 42h2M4 43h1M5 44h1M6 45h1" />
<path stroke="#0099ff" d="M40 1h3M44 2h1M45 3h1M46 5h1M29 6h1M31 6h1M33 6h2M46 6h1M30 7h1M32 7h5M46 7h1M27 8h1M30 8h3M34 8h4M46 8h1M28 9h4M33 9h1M35 9h1M37 9h3M26 10h1M28 10h3M32 10h1M36 10h1M38 10h3M26 11h2M29 11h3M33 11h1M37 11h1M39 11h3M25 12h1M28 12h3M38 12h1M40 12h3M26 13h2M29 13h3M41 13h2M29 14h2M40 14h1M42 14h2M31 15h1M41 15h1M43 15h1M42 16h2M43 17h2M42 18h1M44 18h1M33 19h1M43 19h2M33 20h2M42 20h1M44 20h1M33 21h3M41 21h1M43 21h3M29 22h6M36 22h1M44 22h2M28 23h1M30 23h1M32 23h6M39 23h1M41 23h1M43 23h3M29 24h1M31 24h8M40 24h1M42 24h4M30 25h1M32 25h14M31 26h1M33 26h13M37 31h1M39 31h1M41 31h1M43 31h1M38 32h1M40 32h1M42 32h1M40 33h1" />
<path stroke="#3399cc" d="M30 5h2M28 6h1M30 6h1M32 6h1M26 7h2M29 7h1M31 7h1M25 8h1M28 8h1M24 9h1M26 9h1M23 10h1M25 10h1M27 10h1M22 11h1M24 11h1M28 11h1M21 12h1M27 12h1M20 13h1M28 13h1M19 14h1M18 15h1M17 16h1M26 22h1M28 22h1M25 23h1M27 23h1M29 23h1M31 23h1M26 24h1M28 24h1M30 24h1M27 25h1M29 25h1M31 25h1M28 26h1M30 26h1M32 26h1M36 31h1M38 31h1M40 31h1M42 31h1M35 32h1M37 32h1M39 32h1M41 32h1M37 33h1M39 33h1" />
<path stroke="#3333cc" d="M14 7h1M11 8h1M13 8h1M10 9h1M12 9h1M11 10h1M10 11h1M9 12h1M8 13h1M10 13h1M5 14h1M7 14h1M9 14h1M24 14h3M8 15h1M27 15h2M4 16h1M7 16h1M3 19h1M12 27h1M19 27h1M11 28h1M10 29h1M9 30h1M11 30h1M33 30h2M10 31h1M32 31h2M8 32h1M11 32h1M31 32h2M12 33h1M30 33h2M7 34h1M11 34h1M13 34h1M12 35h1M12 36h1M14 36h1M13 37h1M15 37h1M14 38h1M16 38h1M15 39h1M18 39h1M40 39h1M17 40h1M19 40h1M38 40h2M20 41h1M22 41h1M37 41h1M21 42h1M23 42h1M25 42h1M34 42h3M25 43h9M3 44h1M27 44h3M4 45h1M15 45h1M17 45h1M6 46h2M12 46h1M15 46h1M13 47h1" />
<path stroke="#336666" d="M12 8h1M10 12h1M12 28h1M11 29h1M10 30h1M12 30h1M11 31h1M13 31h1M12 32h1M11 33h1M13 33h1M12 34h1M14 34h1M13 35h1M15 35h1M13 36h1M16 36h1M14 37h1M17 37h1M15 38h1M16 39h2M19 39h1M21 40h1M23 40h1M24 41h1M2 42h1M26 42h1M3 43h1" />
<path stroke="#669999" d="M21 8h1M17 10h1M14 12h1M18 12h1M17 13h1M15 15h1" />
<path stroke="#a0a0a4" d="M22 8h1M19 9h1M21 9h1M16 11h1M19 11h1" />
<path stroke="#00ccff" d="M33 8h1M32 9h1M34 9h1M36 9h1M31 10h1M33 10h1M35 10h1M37 10h1M32 11h1M34 11h1M36 11h1M31 12h1M33 12h1M35 12h1M37 12h1M39 12h1M32 13h1M38 13h1M40 13h1M31 14h1M33 14h1M39 14h1M41 14h1M32 15h1M40 15h1M42 15h1M33 16h1M41 16h1M34 17h1M42 17h1M33 18h1M43 18h1M34 19h1M42 19h1M35 20h1M37 20h1M43 20h1M36 21h1M42 21h1M35 22h1M37 22h1M39 22h1M41 22h1M43 22h1M38 23h1M40 23h1M42 23h1M39 24h1M41 24h1" />
<path stroke="#006699" d="M11 9h1M10 10h1M9 11h1M11 11h1M9 13h1M8 14h1M10 14h1M23 14h1M9 15h1M21 15h1M8 16h1M20 16h1M19 17h1M13 26h1M13 27h1M13 28h1M13 29h1M8 30h1M35 30h1M45 30h1M8 31h1M34 31h1M45 31h1M7 32h1M13 32h2M33 32h1M45 32h1M7 33h1M14 33h1M29 33h1M44 33h1M6 34h1M15 34h1M23 34h6M44 34h1M6 35h1M43 35h1M6 36h1M43 36h1M6 37h1M18 37h1M42 37h1M6 38h1M17 38h2M41 38h1M5 39h1M20 39h1M5 40h1M18 40h1M20 40h1M22 40h1M5 41h1M19 41h1M21 41h1M25 41h2M5 42h1M22 42h1M24 42h1M27 42h5M5 43h1M6 44h1M16 44h1M7 45h1M14 45h1M8 46h4" />
<path stroke="#c0c0c0" d="M20 9h1" />
<path stroke="#000099" d="M9 10h1M8 11h1M7 12h2M6 13h2M6 14h1M5 15h3M5 16h2M29 16h1M4 17h4M30 17h1M4 18h3M31 18h1M4 19h2M31 19h1M3 20h2M31 20h1M3 21h1M3 22h1M20 27h27M9 32h2M8 33h1M10 33h1M9 34h2M8 35h1M10 35h2M9 36h1M11 36h1M10 37h1M12 37h1M11 38h1M13 38h1M12 39h1M14 39h1M15 40h2M16 41h1M18 41h1M19 42h2M17 44h1M24 44h3M16 45h1M13 46h2M12 47h1" />
<path stroke="#c0dcc0" d="M18 10h1" />
<path stroke="#e7e7d6" d="M19 10h1M16 13h1" />
<path stroke="#99cc99" d="M20 10h1" />
<path stroke="#6666cc" d="M21 10h1" />
<path stroke="#66ccff" d="M34 10h1M35 11h1M38 11h1M32 12h1M34 12h1M36 12h1M33 13h1M35 13h1M37 13h1M39 13h1M32 14h1M34 14h1M33 15h1M35 15h1M32 16h1M34 16h1M33 17h1M35 17h1M41 17h1M34 18h1M35 19h1M41 19h1M36 20h1M37 21h1M39 21h1M38 22h1M40 22h1M42 22h1" />
<path stroke="#efd6c6" d="M17 11h1M14 13h1" />
<path stroke="#ffffcc" d="M18 11h1M16 12h1" />
<path stroke="#cccc99" d="M15 12h1M12 14h1M15 14h1M11 15h1M14 15h1M13 16h1M9 17h1M8 18h1M11 18h1M9 19h2" />
<path stroke="#ffff99" d="M17 12h1M15 13h1M13 14h2M12 15h2M11 16h1M10 17h1" />
<path stroke="#969696" d="M13 13h1M16 14h1M14 16h1" />
<path stroke="#33ffff" d="M34 13h1M36 13h1M35 14h1M37 14h1M34 15h1M36 15h1M38 15h1M35 16h1M37 16h1M36 17h1M40 17h1M35 18h1M37 18h1M41 18h1M36 19h1M38 19h1M40 19h1M39 20h1M41 20h1M38 21h1M40 21h1" />
<path stroke="#99ffff" d="M36 14h1M38 14h1M37 15h1M39 15h1M36 16h1M38 16h1M40 16h1M37 17h1M39 17h1M36 18h1M38 18h1M40 18h1M37 19h1M39 19h1M38 20h1M40 20h1" />
<path stroke="#777777" d="M10 15h1M9 16h1M8 17h1M6 21h1M4 22h2M9 22h1M3 23h1M6 23h1M8 23h1M8 24h1M2 25h1M5 25h1M7 25h1M4 26h1M6 26h1M1 27h1M5 27h1M1 28h1M5 28h1M4 29h1M0 30h1M0 31h1M3 32h1" />
<path stroke="#ffcc99" d="M10 16h1M12 16h1M11 17h2M10 18h1" />
<path stroke="#ccffff" d="M39 16h1M38 17h1M39 18h1" />
<path stroke="#868686" d="M13 17h1M12 18h1M10 21h1" />
<path stroke="#3366cc" d="M15 17h1" />
<path stroke="#666666" d="M7 18h1M6 19h1" />
<path stroke="#ffcc66" d="M9 18h1M9 20h1" />
<path stroke="#cccc66" d="M7 19h2M7 20h1M8 21h1" />
<path stroke="#999966" d="M11 19h1M6 20h1M10 20h1M5 21h1M7 24h1" />
<path stroke="#393939" d="M5 20h1M4 21h1" />
<path stroke="#cc9999" d="M8 20h1" />
<path stroke="#cc9966" d="M7 21h1M8 22h1M7 23h1M6 24h1" />
<path stroke="#ada990" d="M9 21h1M6 22h1" />
<path stroke="#99cc66" d="M7 22h1" />
<path stroke="#666633" d="M4 23h1M3 24h1M5 24h1M3 25h2M2 26h2M5 26h1M3 27h2M3 28h1M3 30h1M3 31h1M2 33h1M2 35h1" />
<path stroke="#999933" d="M5 23h1M4 24h1M6 25h1" />
<path stroke="#0066ff" d="M8 25h1" />
<path stroke="#555555" d="M2 27h1M2 28h1M4 28h1M1 29h3M1 30h2M1 31h2M1 32h2M2 34h1" />
<path stroke="#003366" d="M9 31h1M9 33h1M8 34h1M9 35h1M8 36h1M10 36h1M9 37h1M11 37h1M10 38h1M12 38h1M11 39h1M13 39h1M13 40h2M14 41h2M17 41h1M17 42h2M2 43h1M19 43h6M2 44h1M22 44h2M3 45h1M4 46h2M6 47h1M8 47h3" />
<path stroke="#4d4d4d" d="M0 32h1M0 33h2M0 34h2M0 35h2M0 36h2M0 37h2M0 38h2M1 39h1M1 40h1M1 41h1" />
<path stroke="#222222" d="M7 35h1M7 36h1M8 37h1M9 38h1M10 39h1M11 40h1M13 41h1M14 42h1" />
<path stroke="#5f5f5f" d="M0 39h1M1 42h1" />
<path stroke="#000033" d="M12 40h1" />
<path stroke="#161616" d="M15 42h2M17 43h2M19 44h3" />
<path stroke="#336699" d="M4 44h1" />
<path stroke="#333366" d="M18 44h1M7 47h1M11 47h1" />
</svg>